<?xml version="1.0" standalone="no"?>
<!DOCTYPE svg PUBLIC "-//W3C//DTD SVG 20010904//EN"
 "http://www.w3.org/TR/2001/REC-SVG-20010904/DTD/svg10.dtd">
<svg version="1.0" xmlns="http://www.w3.org/2000/svg"
 width="644.000000pt" height="644.000000pt" viewBox="0 0 644.000000 644.000000"
 preserveAspectRatio="xMidYMid meet">
<metadata>
Created by potrace 1.14, written by Peter Selinger 2001-2017
</metadata>
<g transform="translate(0.000000,644.000000) scale(0.100000,-0.100000)"
fill="#000000" stroke="none">
<path d="M1497 6284 c-3 -3 -69 -6 -148 -8 -110 -2 -166 -8 -236 -26 -51 -13
-93 -27 -93 -32 0 -5 -4 -7 -9 -4 -5 3 -26 -2 -47 -11 -22 -9 -42 -18 -46 -19
-5 -1 -11 -3 -15 -4 -5 -1 -12 -2 -16 -1 -4 1 -10 -5 -13 -13 -3 -8 -12 -12
-20 -9 -8 3 -14 0 -14 -6 0 -6 -5 -11 -11 -11 -12 0 -145 -81 -177 -108 -11
-9 -33 -26 -49 -37 -56 -40 -183 -163 -183 -178 0 -5 -4 -5 -10 -2 -5 3 -10 0
-10 -8 0 -8 -9 -22 -20 -32 -24 -21 -97 -133 -122 -185 -81 -168 -132 -331
-147 -471 -6 -48 -9 -909 -7 -1999 1 -1811 3 -1918 20 -1970 9 -30 19 -64 21
-75 2 -11 11 -38 20 -59 9 -22 18 -48 20 -57 2 -9 20 -52 41 -95 20 -44 38
-82 38 -86 1 -4 7 -13 14 -19 6 -7 12 -17 12 -22 0 -18 115 -162 187 -233 95
-93 256 -204 297 -204 9 0 16 -4 16 -9 0 -8 76 -41 93 -41 4 1 15 -6 23 -15 9
-8 25 -15 38 -15 12 0 27 -5 34 -12 7 -7 12 -8 12 -4 0 5 6 4 13 -2 13 -11 32
-15 150 -31 66 -8 4114 -6 4164 2 18 4 49 10 68 16 19 5 35 7 35 4 0 -3 7 0
15 7 8 7 15 9 15 5 0 -4 7 -2 15 5 8 7 15 10 15 6 0 -4 18 3 40 14 23 11 45
18 50 15 6 -3 10 -1 10 4 0 6 6 11 13 11 16 0 130 59 138 72 3 5 8 8 10 7 7
-5 72 40 110 74 10 9 23 17 27 17 4 0 25 18 45 40 20 23 37 38 37 35 0 -8 61
56 106 111 19 23 34 46 34 52 0 6 10 18 22 26 12 9 19 16 14 16 -5 0 -2 8 7
18 17 19 78 137 82 161 2 9 4 17 5 19 2 1 3 5 5 10 1 4 7 20 13 35 7 16 12 34
12 41 0 7 3 16 7 20 4 3 8 12 9 19 9 41 35 144 40 157 4 8 8 29 11 45 8 57 11
3810 3 3860 -16 94 -21 120 -36 175 -8 30 -17 64 -19 74 -13 56 -98 260 -115
276 -3 3 -11 17 -19 32 -8 15 -22 37 -33 47 -10 11 -18 25 -18 31 0 5 -4 10
-10 10 -5 0 -10 5 -10 11 0 7 -13 25 -30 40 -16 16 -28 29 -25 29 3 0 -13 18
-34 39 -22 22 -37 42 -34 45 4 3 2 6 -4 6 -5 0 -30 19 -55 43 -96 88 -146 122
-283 187 -61 29 -117 56 -125 60 -23 11 -198 61 -228 66 -99 14 -190 17 -447
14 -11 0 -45 1 -75 3 -30 1 -58 -2 -62 -8 -5 -7 -8 -7 -8 0 0 12 -261 12 -280
0 -8 -5 -11 -4 -7 2 4 7 -7 8 -31 4 -20 -4 -54 -4 -74 -1 -21 4 -38 3 -38 -1
0 -5 -7 -6 -15 -3 -23 9 -275 10 -275 1 0 -5 -5 -5 -11 -1 -7 4 -51 7 -99 7
-48 0 -92 -3 -99 -7 -6 -4 -11 -4 -11 1 0 10 -452 9 -468 -1 -7 -4 -12 -3 -12
1 0 5 -9 9 -20 9 -11 0 -20 -4 -20 -9 0 -4 -5 -5 -11 -2 -13 9 -69 13 -69 6 0
-8 -116 -5 -128 3 -5 3 -12 3 -16 -1 -8 -8 -201 -7 -215 2 -6 3 -11 3 -11 -2
0 -4 -18 -8 -40 -8 -22 0 -40 3 -40 6 0 4 -15 4 -33 -1 -18 -4 -43 -3 -55 1
-12 5 -32 5 -45 0 -12 -5 -31 -5 -42 -1 -11 4 -24 5 -29 2 -5 -3 -28 -5 -50
-4 -62 2 -126 2 -177 0 -26 0 -51 2 -58 6 -6 4 -11 3 -11 -1 0 -5 -27 -6 -61
-3 -33 3 -62 3 -65 -1 -2 -4 -17 -4 -33 1 -16 4 -32 6 -35 2 -8 -7 -123 -5
-136 3 -6 3 -10 2 -10 -3 0 -6 -14 -7 -35 -2 -19 4 -35 5 -35 1 0 -3 -16 -6
-35 -6 -19 0 -35 2 -35 5 0 6 -120 3 -127 -3 -2 -3 -17 -1 -33 3 -16 4 -31 6
-33 4z"/>
</g>
</svg>
