<?xml version="1.0" standalone="no"?>
<!DOCTYPE svg PUBLIC "-//W3C//DTD SVG 20010904//EN"
 "http://www.w3.org/TR/2001/REC-SVG-20010904/DTD/svg10.dtd">
<svg version="1.0" xmlns="http://www.w3.org/2000/svg"
 width="512.000000pt" height="512.000000pt" viewBox="0 0 512.000000 512.000000"
 preserveAspectRatio="xMidYMid meet">
<metadata>
Created by potrace 1.14, written by Peter Selinger 2001-2017
</metadata>
<g transform="translate(0.000000,512.000000) scale(0.100000,-0.100000)"
fill="#000000" stroke="none">
<path d="M0 2560 l0 -2560 2560 0 2560 0 0 2560 0 2560 -2560 0 -2560 0 0
-2560z m1352 821 c189 -49 309 -160 353 -326 29 -112 37 -105 -133 -105 l-148
0 -11 43 c-17 61 -83 121 -159 143 -120 35 -293 -2 -340 -73 -45 -69 -36 -155
20 -200 50 -39 111 -60 275 -94 80 -16 175 -39 211 -51 191 -61 288 -152 319
-296 40 -188 -29 -364 -182 -465 -189 -125 -539 -142 -763 -36 -144 68 -254
222 -254 356 l0 34 147 -3 146 -3 14 -42 c33 -99 162 -159 326 -151 167 8 257
72 257 182 0 119 -59 155 -355 216 -82 18 -179 43 -215 57 -189 75 -277 185
-288 359 -15 251 170 436 478 477 66 9 226 -3 302 -22z m1418 -15 c303 -55
488 -250 535 -565 19 -121 19 -211 0 -331 -48 -318 -224 -514 -517 -574 -62
-13 -145 -16 -418 -16 l-340 0 0 750 0 750 333 0 c235 -1 354 -5 407 -14z
m1150 -606 l0 -620 330 0 330 0 0 -130 0 -130 -485 0 -485 0 0 750 0 750 155
0 155 0 0 -620z m682 -1506 c11 -23 10 -29 -11 -45 -23 -18 -80 -19 -2031 -19
-1951 0 -2008 1 -2031 19 -21 16 -22 22 -11 45 l12 26 2030 0 2030 0 12 -26z"/>
<path d="M2340 2629 l0 -491 178 4 178 3 77 38 c153 76 221 213 221 452 0 212
-63 351 -197 429 -72 42 -147 56 -309 56 l-148 0 0 -491z"/>
</g>
</svg>
